<?xml version="1.0" encoding="UTF-8"?>
<svg id="Laag_2" xmlns="http://www.w3.org/2000/svg" viewBox="0 0 321.96 325.52">
  <defs>
    <style>
      .cls-1 {
        letter-spacing: .02em;
      }

      .cls-2, .cls-3, .cls-4, .cls-5 {
        stroke-miterlimit: 10;
      }

      .cls-2, .cls-6, .cls-4, .cls-7 {
        stroke-width: 6px;
      }

      .cls-2, .cls-4, .cls-7 {
        fill: #006966;
      }

      .cls-2, .cls-5 {
        stroke: #f4d7d9;
      }

      .cls-8, .cls-9, .cls-10, .cls-11, .cls-12, .cls-13 {
        font-family: Effra-Bold, Effra;
        font-weight: 700;
      }

      .cls-8, .cls-9, .cls-11 {
        font-size: 12px;
      }

      .cls-8, .cls-14, .cls-12 {
        fill: #ed781a;
      }

      .cls-15 {
        stroke: #ed781a;
      }

      .cls-15, .cls-3, .cls-6, .cls-5 {
        fill: none;
      }

      .cls-15, .cls-3, .cls-5 {
        stroke-width: 2px;
      }

      .cls-15, .cls-6, .cls-7 {
        stroke-linecap: round;
        stroke-linejoin: round;
      }

      .cls-16 {
        letter-spacing: -.03em;
      }

      .cls-9, .cls-17, .cls-13 {
        fill: #fabd2e;
      }

      .cls-3, .cls-4 {
        stroke: #fabd2e;
      }

      .cls-10, .cls-11, .cls-18 {
        fill: #f4d7d9;
      }

      .cls-10, .cls-12, .cls-13 {
        font-size: 24px;
      }

      .cls-6, .cls-7 {
        stroke: #b2d6bf;
      }

      .cls-19 {
        letter-spacing: .02em;
      }

      .cls-20 {
        letter-spacing: 0em;
      }

      .cls-21 {
        letter-spacing: .02em;
      }

      .cls-22 {
        letter-spacing: -.02em;
      }

      .cls-23 {
        letter-spacing: -.01em;
      }

      .cls-24 {
        letter-spacing: -.01em;
      }

      .cls-25 {
        letter-spacing: -.02em;
      }

      .cls-26 {
        letter-spacing: -.02em;
      }

      .cls-27 {
        letter-spacing: -.02em;
      }

      .cls-28 {
        letter-spacing: -.02em;
      }

      .cls-29 {
        letter-spacing: -.02em;
      }
    </style>
  </defs>
  <g id="Laag_1-2" data-name="Laag_1">
    <polygon class="cls-7" points="260.41 68.99 260.41 141.35 227.51 170.96 87.38 170.96 54.48 141.35 54.48 68.99 260.41 68.99"/>
    <line class="cls-6" x1="87.38" y1="170.96" x2="54.48" y2="141.35"/>
    <line class="cls-6" x1="260.41" y1="141.35" x2="227.51" y2="170.96"/>
    <circle class="cls-4" cx="120.68" cy="116.52" r="14.64"/>
    <circle class="cls-2" cx="194.2" cy="116.52" r="14.64"/>
    <rect class="cls-7" x="102.26" y="170.96" width="36.84" height="36.84"/>
    <rect class="cls-7" x="39.97" y="151.13" width="36.84" height="36.84" transform="translate(129.61 4.97) rotate(42.4)"/>
    <rect class="cls-7" x="237.75" y="152.54" width="36.84" height="36.84" transform="translate(213.96 -134.11) rotate(48.4)"/>
    <rect class="cls-7" x="175.78" y="170.96" width="36.84" height="36.84"/>
    <text class="cls-8" transform="translate(85.95 280.02)"><tspan x="0" y="0">Choose who </tspan><tspan class="cls-29" x="67.89" y="0">y</tspan><tspan x="74.19" y="0">ou </tspan><tspan class="cls-25" x="89.9" y="0">w</tspan><tspan x="98.94" y="0">ould li</tspan><tspan class="cls-16" x="130.52" y="0">k</tspan><tspan x="136.55" y="0">e </tspan><tspan class="cls-28" x="-1.35" y="14.4">t</tspan><tspan x="3.39" y="14.4">o h</tspan><tspan class="cls-27" x="19.13" y="14.4">a</tspan><tspan class="cls-29" x="25.07" y="14.4">v</tspan><tspan x="31.31" y="14.4">e a </tspan><tspan class="cls-26" x="48.26" y="14.4">c</tspan><tspan x="53.92" y="14.4">o</tspan><tspan class="cls-27" x="60.72" y="14.4">n</tspan><tspan class="cls-29" x="67.23" y="14.4">v</tspan><tspan x="73.47" y="14.4">e</tspan><tspan class="cls-26" x="79.89" y="14.4">r</tspan><tspan x="84.42" y="14.4">sation with</tspan></text>
    <text class="cls-9" transform="translate(33.16 11.19)"><tspan class="cls-28" x="0" y="0">S</tspan><tspan x="6.82" y="0">ta</tspan><tspan class="cls-21" x="18.01" y="0">r</tspan><tspan x="22.97" y="0">t </tspan><tspan class="cls-22" x="30.15" y="0">r</tspan><tspan x="34.63" y="0">e</tspan><tspan class="cls-23" x="41.05" y="0">c</tspan><tspan x="46.71" y="0">o</tspan><tspan class="cls-27" x="53.52" y="0">r</tspan><tspan class="cls-20" x="57.99" y="0">ding and </tspan><tspan x="18.97" y="14.4">t</tspan><tspan class="cls-24" x="23.99" y="14.4">r</tspan><tspan x="28.58" y="14.4">anscribing</tspan></text>
    <text class="cls-11" transform="translate(184.58 10)"><tspan class="cls-28" x="0" y="0">S</tspan><tspan x="6.82" y="0">ta</tspan><tspan class="cls-21" x="18.01" y="0">r</tspan><tspan x="22.97" y="0">t </tspan><tspan class="cls-22" x="30.15" y="0">r</tspan><tspan x="34.63" y="0">e</tspan><tspan class="cls-1" x="41.05" y="0">f</tspan><tspan x="45.5" y="0">le</tspan><tspan class="cls-19" x="54.92" y="0">c</tspan><tspan x="61.07" y="0">ting on the </tspan><tspan class="cls-23" x="24.48" y="14.4">c</tspan><tspan x="30.14" y="14.4">o</tspan><tspan class="cls-22" x="36.95" y="14.4">n</tspan><tspan class="cls-29" x="43.45" y="14.4">v</tspan><tspan x="49.69" y="14.4">e</tspan><tspan class="cls-23" x="56.11" y="14.4">r</tspan><tspan x="60.65" y="14.4">sation</tspan></text>
    <circle class="cls-14" cx="99.77" cy="314.7" r="10.63"/>
    <circle class="cls-14" cx="138.65" cy="314.88" r="10.63"/>
    <circle class="cls-14" cx="177" cy="314.88" r="10.63"/>
    <circle class="cls-14" cx="215.34" cy="314.7" r="10.63"/>
    <g>
      <path class="cls-3" d="M75.4,28.43s-1.3,40.62,14.34,64.06"/>
      <polygon class="cls-17" points="99.39 102.77 80.03 93.43 89.23 91.49 92.1 82.54 99.39 102.77"/>
    </g>
    <g>
      <path class="cls-5" d="M238.92,29.32c1.14,15.88.48,45.89-11.72,63.04"/>
      <polygon class="cls-18" points="216.77 101.88 225.49 82.23 227.71 91.37 236.75 93.96 216.77 101.88"/>
    </g>
    <g>
      <path class="cls-15" d="M157.44,266.51s-25.71-9.59-34.15-28.78"/>
      <polygon class="cls-14" points="120.68 223.84 132.86 241.55 123.91 238.67 116.98 245.01 120.68 223.84"/>
    </g>
    <g>
      <path class="cls-15" d="M157.89,266.51s25.71-9.59,34.15-28.78"/>
      <polygon class="cls-14" points="194.65 223.84 198.36 245.01 191.42 238.67 182.47 241.55 194.65 223.84"/>
    </g>
    <g>
      <path class="cls-15" d="M157.44,266.51s81.58,0,99.55-28.96"/>
      <polygon class="cls-14" points="260.41 223.84 262.66 245.22 256.17 238.41 247.05 240.68 260.41 223.84"/>
    </g>
    <g>
      <path class="cls-15" d="M157.55,266.51s-81.58,0-99.54-28.96"/>
      <polygon class="cls-14" points="54.59 223.84 67.95 240.68 58.83 238.41 52.34 245.22 54.59 223.84"/>
    </g>
    <text class="cls-12" transform="translate(56.7 288.67)"><tspan x="0" y="0">1.</tspan></text>
    <text class="cls-13" transform="translate(10.8 20.46)"><tspan x="0" y="0">2.</tspan></text>
    <text class="cls-10" transform="translate(164.92 20.46)"><tspan x="0" y="0">3.</tspan></text>
  </g>
</svg>